<?xml version="1.0" encoding="utf-8"?>
<!-- Generator: Adobe Illustrator 24.0.2, SVG Export Plug-In . SVG Version: 6.00 Build 0)  -->
<svg version="1.1" id="Calque_1" xmlns="http://www.w3.org/2000/svg" xmlns:xlink="http://www.w3.org/1999/xlink" x="0px" y="0px"
	 viewBox="0 0 141.7 142.74" style="enable-background:new 0 0 141.7 142.74;" xml:space="preserve">
<style type="text/css">
	.st0{fill:#1B2646;}
	.st1{fill:none;stroke:#FFFFFF;stroke-width:8;stroke-miterlimit:10;}
	.st2{fill:none;stroke:#35B9C6;stroke-width:8;stroke-miterlimit:10;}
	.st3{fill:#FFFFFF;}
	.st4{fill:#35B9C6;stroke:#FFFFFF;stroke-miterlimit:10;}
	.st5{fill:#FFFFFF;stroke:#35B9C6;stroke-width:7;stroke-miterlimit:10;}
	.st6{fill:#35B9C6;}
	.st7{fill:#FFFFFF;stroke:#35B9C6;stroke-miterlimit:10;}
</style>
<rect x="196.72" class="st0" width="595.28" height="841.89"/>
<g>
	<path class="st1" d="M417.51,121.67h-66.26c-1.59,0-2.87-1.29-2.87-2.87V52.54c0-1.59,1.29-2.87,2.87-2.87h66.26
		c1.59,0,2.87,1.29,2.87,2.87v66.26C420.38,120.38,419.1,121.67,417.51,121.67z"/>
	<path class="st2" d="M416.36,120.52H352.4c-1.59,0-2.87-1.29-2.87-2.87V53.69c0-1.59,1.29-2.87,2.87-2.87h63.96
		c1.59,0,2.87,1.29,2.87,2.87v63.96C419.23,119.23,417.95,120.52,416.36,120.52z"/>
	<text transform="matrix(1 0 0 1 349.6992 147.1095)" class="st7" style="font-family:'Latikana'; font-size:167.107px;">J</text>
	<text transform="matrix(-1 0 0 -1 419.0664 24.2267)" class="st7" style="font-family:'Latikana'; font-size:167.107px;">J</text>
</g>
<polygon class="st1" points="636.56,120.51 592.63,120.44 570.72,82.36 592.75,44.35 636.68,44.42 658.58,82.5 "/>
<polygon class="st2" points="638.21,124.72 590.19,124.65 566.24,83.02 590.32,41.47 638.34,41.55 662.29,83.17 "/>
<text transform="matrix(1 0 0 1 579.6276 143.8696)" class="st7" style="font-family:'Latikana'; font-size:167.107px;">J</text>
<text transform="matrix(-1 0 0 -1 648.9953 20.9869)" class="st7" style="font-family:'Latikana'; font-size:167.107px;">J</text>
<g>
	<polygon class="st1" points="746.44,122.16 702.51,122.09 680.61,84.01 702.64,46 746.57,46.07 768.47,84.15 	"/>
	<polygon class="st2" points="748.1,126.37 700.08,126.3 676.13,84.67 700.21,43.12 748.23,43.2 772.17,84.83 	"/>
	<g>
		<g>
			<g>
				<path class="st3" d="M755.62,34.19h-0.11l0.11,3.2c-18.43-0.49-35.7,12.32-41.69,29.37h34.35v14.69h-51.4
					c-0.8-31.65,27.07-59.55,58.74-58.75V34.19z"/>
				<polygon class="st3" points="758.49,34.19 758.49,34.53 755.62,37.39 755.51,34.19 				"/>
				<polygon class="st3" points="751.14,78.15 751.14,78.59 748.28,81.45 748.28,78.15 				"/>
			</g>
			<path class="st4" d="M716.29,63.4h34.35v14.69h-51.4c0-16.21,5.73-30.05,17.2-41.53c11.46-11.48,25.32-17.22,41.55-17.22v14.69
				c-12.18,0-22.57,4.31-31.17,12.93C721.92,51.85,718.41,57.33,716.29,63.4z"/>
		</g>
	</g>
	<g>
		<g>
			<g>
				<path class="st3" d="M689.52,132.01h0.11l-0.11-3.2c18.43,0.49,35.7-12.32,41.69-29.37l-34.35,0V84.75l51.4,0
					c0.8,31.65-27.07,59.55-58.74,58.75V132.01z"/>
				<polygon class="st3" points="686.65,132.01 686.65,131.67 689.52,128.81 689.63,132.01 				"/>
				<polygon class="st3" points="694,88.05 694,87.61 696.86,84.75 696.86,88.05 				"/>
			</g>
			<path class="st4" d="M728.84,102.8l-34.35,0V88.11l51.4,0c0,16.21-5.73,30.05-17.2,41.53c-11.46,11.48-25.32,17.22-41.55,17.22
				v-14.69c12.18,0,22.57-4.31,31.17-12.93C723.21,114.34,726.72,108.86,728.84,102.8z"/>
		</g>
	</g>
</g>
<path class="st5" d="M334.9,378.16h34.35v14.69h-51.4c0-16.21,5.73-30.05,17.2-41.53c11.46-11.48,25.32-17.22,41.55-17.22v14.69
	c-12.18,0-22.57,4.31-31.17,12.93C340.53,366.61,337.02,372.09,334.9,378.16z"/>
<path class="st5" d="M422.19,348.78h-34.35V334.1h51.4c0,16.21-5.73,30.05-17.2,41.53c-11.46,11.48-25.32,17.22-41.55,17.22v-14.69
	c12.18,0,22.57-4.31,31.17-12.93C416.56,360.33,420.07,354.85,422.19,348.78z"/>
<text transform="matrix(1 0 0 1 748.2749 299.4935)" style="font-family:'Latikana'; font-size:167.107px;">ยง</text>
<text transform="matrix(-1.0877 0 0 1 654.9809 428.8087)" style="font-family:'Latikana'; font-size:167.107px;">ฤ</text>
<text transform="matrix(1 0 0 1 231.3828 500.8085)" class="st5" style="font-family:'Latikana'; font-size:167.107px;">li</text>
<path class="st5" d="M335.65,405.34v44.06h-0.05c-1.49,13.09-7.08,24.48-16.76,34.19c-11.48,11.48-25.34,17.22-41.58,17.22v-14.69
	c12.19,0,22.58-4.31,31.17-12.93c4.9-4.9,8.41-10.38,10.53-16.44h-34.35v-14.69h36.35v-36.72H335.65z"/>
<text transform="matrix(1 0 0 1 333.8602 497.7053)" class="st5" style="font-family:'Latikana'; font-size:167.107px;">oPia</text>
<rect x="238.47" y="489.38" class="st3" width="38.75" height="7.98"/>
<rect x="277.09" y="489.38" class="st3" width="3.73" height="7.98"/>
<polyline class="st6" points="396.06,479.48 391.92,483.55 391.73,488.7 400.52,485.99 "/>
<rect x="395.78" y="486.52" class="st3" width="7.49" height="7.49"/>
<rect x="446.36" y="486.52" class="st3" width="40.53" height="7.7"/>
<g>
	<polygon class="st2" points="94.08,112.08 48.3,112.01 25.47,72.32 48.43,32.71 94.21,32.78 117.04,72.47 	"/>
	<polygon class="st1" points="95.8,116.47 45.76,116.39 20.81,73.01 45.9,29.71 95.94,29.79 120.89,73.17 	"/>
	<g>
		<g>
			<g>
				<path class="st6" d="M103.64,20.4h-0.11l0.11,3.33c-19.21-0.51-37.2,12.84-43.45,30.61h35.8v15.31H42.43
					C41.59,36.67,70.64,7.59,103.64,8.43V20.4z"/>
				<polygon class="st6" points="106.63,20.4 106.63,20.75 103.64,23.73 103.53,20.4 				"/>
				<polygon class="st6" points="98.97,66.21 98.97,66.67 95.99,69.65 95.99,66.21 				"/>
			</g>
			<path class="st7" d="M62.66,50.84h35.8v15.31H44.89c0-16.89,5.97-31.32,17.92-43.28c11.95-11.96,26.38-17.94,43.3-17.94v15.31
				c-12.7,0-23.53,4.49-32.48,13.48C68.52,38.81,64.87,44.52,62.66,50.84z"/>
		</g>
	</g>
	<g>
		<g>
			<g>
				<path class="st6" d="M34.76,122.34h0.11l-0.11-3.33c19.21,0.51,37.2-12.84,43.45-30.61l-35.8,0l0-15.31l53.57,0
					c0.83,32.98-28.21,62.06-61.21,61.23L34.76,122.34z"/>
				<polygon class="st6" points="31.77,122.34 31.77,121.99 34.76,119.01 34.87,122.34 				"/>
				<polygon class="st6" points="39.43,76.53 39.43,76.07 42.41,73.09 42.41,76.53 				"/>
			</g>
			<path class="st7" d="M75.74,91.9l-35.8,0l0-15.31l53.57,0c0,16.89-5.97,31.32-17.92,43.28c-11.95,11.96-26.38,17.94-43.3,17.94
				l0-15.31c12.7,0,23.53-4.49,32.48-13.48C69.87,103.93,73.53,98.22,75.74,91.9z"/>
		</g>
	</g>
</g>
</svg>
