<?xml version="1.0" encoding="utf-8"?>
<!-- Generator: Adobe Illustrator 24.0.2, SVG Export Plug-In . SVG Version: 6.00 Build 0)  -->
<svg version="1.1" id="Calque_1" xmlns="http://www.w3.org/2000/svg" xmlns:xlink="http://www.w3.org/1999/xlink" x="0px" y="0px"
	 viewBox="0 0 307.09 129.08" style="enable-background:new 0 0 307.09 129.08;" xml:space="preserve">
<style type="text/css">
	.st0{fill:#FFFFFF;}
</style>
<g>
	<path class="st0" d="M0,95.47V0h14.69v95.47H0z"/>
	<path class="st0" d="M21.7,95.47V36.72h14.69v58.75H21.7z"/>
</g>
<path class="st0" d="M100.59,0v44.06h-0.05c-1.49,13.09-7.08,24.48-16.76,34.19C72.3,89.73,58.44,95.47,42.2,95.47V80.78
	c12.19,0,22.58-4.31,31.17-12.93c4.9-4.9,8.41-10.38,10.53-16.44H49.55V36.72H85.9V0H100.59z"/>
<path class="st0" d="M130.02,92.37c-8.13,0-15.06-2.87-20.79-8.61c-5.73-5.74-8.59-12.66-8.59-20.77c0-8.1,2.86-15.03,8.59-20.77
	c5.73-5.74,12.65-8.61,20.79-8.61c8.1,0,15.03,2.87,20.77,8.61c5.74,5.74,8.61,12.66,8.61,20.77c0,8.11-2.87,15.03-8.61,20.77
	C145.04,89.5,138.12,92.37,130.02,92.37z M140.4,73.38c2.87-2.87,4.3-6.33,4.3-10.38c0-4.08-1.44-7.55-4.3-10.4
	c-2.87-2.86-6.33-4.28-10.38-4.28c-4.08,0-7.55,1.43-10.4,4.28c-2.86,2.86-4.28,6.32-4.28,10.4c0,4.05,1.43,7.51,4.28,10.38
	c2.86,2.87,6.32,4.3,10.4,4.3C134.07,77.68,137.53,76.25,140.4,73.38z"/>
<path class="st0" d="M171.91,92.37v36.72h-14.69V85.02h7.34v-7.34h41.69c-2.12-6.06-5.63-11.56-10.53-16.48
	c-8.59-8.59-18.98-12.89-31.17-12.89V33.62c16.24,0,30.09,5.74,41.55,17.22c11.46,11.48,17.2,25.32,17.2,41.53H171.91z"/>
<path class="st0" d="M228.49,92.37V33.62h14.69v58.75H228.49z"/>
<path class="st0" d="M292.41,72.5c-0.82,0.9-1.65,1.78-2.49,2.65c-11.48,11.48-25.34,17.22-41.57,17.22V77.68
	c12.18,0,22.57-4.3,31.17-12.91c8.59-8.61,12.89-18.99,12.89-31.15h14.69v58.75h-14.69V72.5z"/>
<rect x="157.22" y="77.68" class="st0" width="7.36" height="7.36"/>
</svg>
